<svg xmlns="http://www.w3.org/2000/svg" width="65.93" height="62.427" viewBox="0 0 65.93 62.427">
  <g id="zalo-1" transform="translate(0.43 0.653)">
    <path id="Path_33911" data-name="Path 33911" d="M12.043,53.364c-.251-.112-.433-.237-.14-.488.181-.14.377-.265.572-.391a13.825,13.825,0,0,0,4.675-4.4c.949-1.591.8-2.526-.391-3.7-6.615-6.615-9.518-14.528-8.066-23.878a26.833,26.833,0,0,1,6.754-13.8A29.994,29.994,0,0,1,22.859.751c.167-.1.4-.126.433-.377-.056-.14-.154-.1-.237-.1-4.7,0-9.406-.1-14.1.028A8.49,8.49,0,0,0,.6,8.9C.628,23.457.6,38.013.6,52.582a8.358,8.358,0,0,0,7.955,8.471c3.81.154,7.62.028,11.444.014.279.014.558.028.837.028H40.987c5.024,0,10.048.028,15.072,0A8.431,8.431,0,0,0,64.5,52.68V44.432a1.046,1.046,0,0,0-.056-.614c-.251.014-.349.223-.488.363a30.906,30.906,0,0,1-9.406,6.461,34.782,34.782,0,0,1-26.181,1,4.139,4.139,0,0,0-2.4-.112c-1.172.293-2.331.642-3.489.991a21.042,21.042,0,0,1-10.439.837ZM22.161,29.849c.237-.307.363-.488.5-.67q2.742-3.475,5.485-6.964a9.255,9.255,0,0,0,1.4-2.163,1.518,1.518,0,0,0-.977-2.121,3.763,3.763,0,0,0-1.312-.154c-2.484-.014-4.982-.014-7.466,0a4.27,4.27,0,0,0-1.033.126A1.47,1.47,0,0,0,17.7,19.689a1.492,1.492,0,0,0,1.089,1.075,3.665,3.665,0,0,0,1.033.112c1.507.014,3.028,0,4.536.014.167,0,.377-.112.5.14-.126.167-.251.335-.377.488C22.315,24.252,20.165,27,18,29.737a1.925,1.925,0,0,0,1.577,3.321c.642.042,1.3.014,1.954.014,2.261,0,4.508.014,6.768-.014A1.56,1.56,0,0,0,30.018,31.2c-.1-.879-.7-1.34-1.814-1.354-1.968-.014-3.935,0-6.043,0Zm16.188-7.341a4.422,4.422,0,0,0-5.554-.5,5.819,5.819,0,0,0-2.847,6.071c.265,2.372,1.3,4.312,3.782,5.108a4.272,4.272,0,0,0,4.256-.712c.335-.265.433-.209.67.084a1.717,1.717,0,0,0,1.954.544,1.633,1.633,0,0,0,1.158-1.577c.014-2.791.028-5.582,0-8.373a1.719,1.719,0,0,0-2.149-1.6,2.167,2.167,0,0,0-1.27.963Zm9.671,5.177a5.689,5.689,0,0,0,6.461,5.764,5.814,5.814,0,0,0,5.387-6.364A5.782,5.782,0,0,0,53.6,21.322C50.267,21.419,47.909,24.1,48.021,27.685Zm-1.228-2.777c0-2.191.014-4.368,0-6.559a1.752,1.752,0,1,0-3.5-.014c-.014.656,0,1.3,0,1.954V31.384a1.822,1.822,0,0,0,1.228,1.8,1.787,1.787,0,0,0,2.2-1.27,1.588,1.588,0,0,0,.056-.516c.028-2.163.014-4.326.014-6.489Z" transform="translate(-0.086)" fill="#fdfefe"/>
    <path id="Path_33912" data-name="Path 33912" d="M19.9,61.253c-3.81,0-7.634.126-11.444-.014A8.376,8.376,0,0,1,.5,52.768C.5,38.213.528,23.657.5,9.087A8.5,8.5,0,0,1,8.873.5c4.689-.126,9.392-.028,14.1-.028.084,0,.2-.042.237.1-.028.251-.279.279-.433.377a29.994,29.994,0,0,0-7.41,5.959,26.888,26.888,0,0,0-6.754,13.8c-1.451,9.336,1.465,17.263,8.066,23.878,1.172,1.186,1.326,2.107.391,3.7a13.825,13.825,0,0,1-4.675,4.4c-.2.112-.391.251-.586.377-.293.251-.112.377.14.488a1.779,1.779,0,0,0,.209.349c1.6,1.423,3.126,2.945,4.7,4.4.74.684,1.479,1.4,2.191,2.107C19.34,60.667,19.828,60.751,19.9,61.253Z" transform="translate(0 -0.172)" fill="#0180c7"/>
    <path id="Path_33913" data-name="Path 33913" d="M90.468,329.935c-.07-.488-.559-.572-.853-.865-.713-.726-1.454-1.423-2.195-2.107-1.58-1.451-3.1-2.973-4.711-4.4a1.779,1.779,0,0,1-.21-.349,21.34,21.34,0,0,0,10.471-.823c1.16-.349,2.321-.7,3.495-.991a4.04,4.04,0,0,1,2.4.112,34.969,34.969,0,0,0,26.226-1,30.919,30.919,0,0,0,9.422-6.447c.14-.14.238-.349.489-.363.126.2.056.4.056.614v8.164a8.45,8.45,0,0,1-8.388,8.5h-.07c-5.033.028-10.065,0-15.1,0h-20.2Q90.888,329.935,90.468,329.935Z" transform="translate(-70.647 -268.854)" fill="#0172b1"/>
    <path id="Path_33914" data-name="Path 33914" d="M125.835,137.993c2.107,0,4.089-.014,6.057,0,1.1.014,1.7.474,1.814,1.354a1.565,1.565,0,0,1-1.717,1.856c-2.261.028-4.508.014-6.768.014-.656,0-1.3.028-1.954-.014a2.052,2.052,0,0,1-2-1.047,2.085,2.085,0,0,1,.419-2.275c2.149-2.735,4.312-5.485,6.475-8.22.126-.167.251-.335.377-.488-.14-.237-.335-.126-.5-.14-1.507-.014-3.028,0-4.536-.014a5.088,5.088,0,0,1-1.033-.112,1.463,1.463,0,0,1-.028-2.847,4.269,4.269,0,0,1,1.033-.126c2.484-.014,4.982-.014,7.466,0a4.625,4.625,0,0,1,1.312.154,1.522,1.522,0,0,1,.977,2.121,9.872,9.872,0,0,1-1.4,2.163q-2.742,3.5-5.485,6.95c-.154.181-.293.363-.516.67Z" transform="translate(-103.759 -108.144)" fill="#0180c7"/>
    <path id="Path_33915" data-name="Path 33915" d="M218.872,123.144a2.144,2.144,0,0,1,1.256-.949,1.713,1.713,0,0,1,2.149,1.6c.042,2.791.028,5.582,0,8.373a1.65,1.65,0,0,1-1.158,1.577,1.7,1.7,0,0,1-1.954-.544c-.237-.293-.335-.349-.67-.084a4.272,4.272,0,0,1-4.256.712c-2.484-.809-3.5-2.749-3.782-5.108a5.788,5.788,0,0,1,2.847-6.071A4.42,4.42,0,0,1,218.872,123.144Zm-4.94,5.094a3.045,3.045,0,0,0,.586,1.689,2.3,2.3,0,0,0,3.21.461,2.4,2.4,0,0,0,.461-.461,3.48,3.48,0,0,0,0-3.866,2.1,2.1,0,0,0-1.661-.879C214.992,125.084,213.918,126.27,213.932,128.238Zm14.611.084c-.112-3.587,2.247-6.266,5.6-6.364a6.085,6.085,0,0,1,.879,12.127A5.694,5.694,0,0,1,228.543,128.321Zm3.5-.335a3.089,3.089,0,0,0,.6,1.954,2.276,2.276,0,0,0,3.21.419,2.68,2.68,0,0,0,.4-.391,3.472,3.472,0,0,0,.014-3.908,2.137,2.137,0,0,0-1.661-.879C233.106,125.1,232.046,126.242,232.046,127.986Zm-4.731-2.442c0,2.163.014,4.326,0,6.489a1.814,1.814,0,0,1-1.758,1.842,2.168,2.168,0,0,1-.516-.056,1.809,1.809,0,0,1-1.228-1.8V120.925c0-.656-.014-1.3,0-1.954a1.752,1.752,0,1,1,3.5.028C227.329,121.176,227.315,123.367,227.315,125.544Z" transform="translate(-180.608 -100.636)" fill="#0180c7"/>
    <path id="Path_33916" data-name="Path 33916" d="M235.7,177.345c-.014-1.968,1.061-3.154,2.582-3.07a2.151,2.151,0,0,1,1.661.893,3.48,3.48,0,0,1,0,3.866,2.3,2.3,0,0,1-3.21.461,2.4,2.4,0,0,1-.461-.461A3.142,3.142,0,0,1,235.7,177.345Zm18.114-.251c0-1.73,1.061-2.889,2.568-2.805a2.137,2.137,0,0,1,1.661.879,3.472,3.472,0,0,1-.014,3.908,2.3,2.3,0,0,1-3.224.377,1.794,1.794,0,0,1-.391-.4A3.176,3.176,0,0,1,253.813,177.093Z" transform="translate(-202.376 -149.743)" fill="#fdfefe"/>
    <path id="Path_33917" data-name="Path 33917" d="M10.071,1H55.859a9.071,9.071,0,0,1,9.071,9.071V52.356a9.071,9.071,0,0,1-9.071,9.071H10.071A9.071,9.071,0,0,1,1,52.356V10.071A9.071,9.071,0,0,1,10.071,1Z" transform="translate(-0.43 -0.653)" fill="none" stroke="#0180c7" stroke-miterlimit="10" stroke-width="2"/>
  </g>
</svg>
